


<svg xmlns="http://www.w3.org/2000/svg" width="40" height="40" viewBox="0 0 40 40" fill="none">
  <g clip-path="url(#clip0_450_19200)">
    <path fill-rule="evenodd" clip-rule="evenodd" d="M33.3333 5H6.66659C4.83325 5 3.33325 6.5 3.33325 8.33333V31.6667C3.33325 33.5 4.83325 35 6.66659 35H33.3333C35.1666 35 36.6666 33.5 36.6666 31.6667V8.33333C36.6666 6.5 35.1666 5 33.3333 5ZM14.9999 28.3333H9.99992C9.08325 28.3333 8.33325 27.5833 8.33325 26.6667C8.33325 25.75 9.08325 25 9.99992 25H14.9999C15.9166 25 16.6666 25.75 16.6666 26.6667C16.6666 27.5833 15.9166 28.3333 14.9999 28.3333ZM14.9999 21.6667H9.99992C9.08325 21.6667 8.33325 20.9167 8.33325 20C8.33325 19.0833 9.08325 18.3333 9.99992 18.3333H14.9999C15.9166 18.3333 16.6666 19.0833 16.6666 20C16.6666 20.9167 15.9166 21.6667 14.9999 21.6667ZM14.9999 15H9.99992C9.08325 15 8.33325 14.25 8.33325 13.3333C8.33325 12.4167 9.08325 11.6667 9.99992 11.6667H14.9999C15.9166 11.6667 16.6666 12.4167 16.6666 13.3333C16.6666 14.25 15.9166 15 14.9999 15ZM31.1666 18.5333L25.8833 23.8167C25.2333 24.4667 24.1666 24.4667 23.5166 23.8167L21.1666 21.45C20.5166 20.8 20.5166 19.75 21.1666 19.1C21.8166 18.45 22.8666 18.45 23.5166 19.1L24.6999 20.2833L28.8166 16.1667C29.4666 15.5167 30.5166 15.5167 31.1666 16.1667L31.1833 16.1833C31.8166 16.8333 31.8166 17.9 31.1666 18.5333Z" fill="#75777A"/>
  </g>
  <defs>
    <clipPath id="clip0_450_19200">
      <rect width="40" height="40" fill="white"/>
    </clipPath>
  </defs>
</svg>

