<svg xmlns="http://www.w3.org/2000/svg" width="40" height="40" viewBox="0 0 40 40" fill="none">
  <path d="M17.9999 26.4997L25.7833 20.6663C26.2333 20.333 26.2333 19.6663 25.7833 19.333L17.9999 13.4997C17.4499 13.083 16.6666 13.483 16.6666 14.1663V25.833C16.6666 26.5163 17.4499 26.9163 17.9999 26.4997ZM19.9999 3.33301C10.7999 3.33301 3.33325 10.7997 3.33325 19.9997C3.33325 29.1997 10.7999 36.6663 19.9999 36.6663C29.1999 36.6663 36.6666 29.1997 36.6666 19.9997C36.6666 10.7997 29.1999 3.33301 19.9999 3.33301ZM19.9999 33.333C12.6499 33.333 6.66659 27.3497 6.66659 19.9997C6.66659 12.6497 12.6499 6.66634 19.9999 6.66634C27.3499 6.66634 33.3333 12.6497 33.3333 19.9997C33.3333 27.3497 27.3499 33.333 19.9999 33.333Z" fill="#75777A"/>
</svg>